<svg xmlns="http://www.w3.org/2000/svg" width="35" height="34" viewBox="0 0 35 34"><defs><mask id="a18gb" width="2" height="2" x="-1" y="-1"><path fill="#fff" d="M5 1h14v14H5z"/><path d="M14.71 8.782L19 6.006 5 1l5.006 14 2.776-4.29 3.006 3.005a1.363 1.363 0 1 0 1.927-1.927z"/></mask><filter id="a18ga" width="65.8" height="69.3" x="-18" y="-22" filterUnits="userSpaceOnUse"><feOffset dx="5.8" dy="9.3" in="SourceGraphic" result="FeOffset1148Out"/><feGaussianBlur in="FeOffset1148Out" result="FeGaussianBlur1149Out" stdDeviation="5.2 5.2"/></filter></defs><g><g><g filter="url(#a18ga)"><path fill="none" d="M14.71 8.782L19 6.006 5 1l5.006 14 2.776-4.29 3.006 3.005a1.363 1.363 0 1 0 1.927-1.927z" mask="url(&quot;#a18gb&quot;)"/><path fill="#9c2e57" fill-opacity=".73" d="M14.71 8.782L19 6.006 5 1l5.006 14 2.776-4.29 3.006 3.005a1.363 1.363 0 1 0 1.927-1.927z"/></g><path fill="#fff" d="M14.71 8.782L19 6.006 5 1l5.006 14 2.776-4.29 3.006 3.005a1.363 1.363 0 1 0 1.927-1.927z"/></g></g></svg>