<svg xmlns="http://www.w3.org/2000/svg" width="19" height="13" viewBox="0 0 19 13"><g><g opacity=".64"><path fill="#0099c7" d="M19 11.12c.001.554-.435 1.005-.972 1.006l-17.04.024H.987a.952.952 0 0 1-.688-.293 1.014 1.014 0 0 1-.286-.71L0 1.27C0 1.002.1.75.284.56A.952.952 0 0 1 .972.265L18.012.24h.002c.536 0 .973.45.973 1.003zM2.043 1.268L9.5 6.584l7.444-5.338zm10.52 5.62a.477.477 0 0 1 .682-.089l4.782 3.826-.012-8.922L9.78 7.607a.476.476 0 0 1-.555 0L.974 1.727l.012 8.9L5.77 6.797a.477.477 0 0 1 .682.09.513.513 0 0 1-.086.703l-4.442 3.554 15.14-.021-4.415-3.533a.513.513 0 0 1-.086-.704z"/></g></g></svg>