<svg xmlns="http://www.w3.org/2000/svg" width="54" height="46" viewBox="0 0 54 46"><g><g><path fill="#fff9df" d="M54 16.473c0 5.266-4.487 11.83-13.336 19.506-6.47 5.613-13.032 9.814-13.097 9.855a1.053 1.053 0 0 1-1.134 0c-.066-.041-6.627-4.242-13.097-9.855C4.486 28.302 0 21.74 0 16.473 0 7.39 7.215 0 16.083 0 20.186 0 24.023 1.546 27 4.376 29.977 1.546 33.814 0 37.917 0 46.785 0 54 7.39 54 16.473zm-2.11 0c0-7.92-6.268-14.363-13.973-14.363-3.873 0-7.475 1.592-10.142 4.484a1.054 1.054 0 0 1-1.55 0C23.558 3.702 19.956 2.11 16.083 2.11c-7.705 0-13.974 6.443-13.974 14.363 0 4.562 4.36 10.756 12.61 17.912 5.259 4.563 10.57 8.17 12.28 9.3 1.714-1.133 7.04-4.75 12.3-9.316 8.238-7.149 12.592-13.337 12.592-17.896zM37.854 6.701a1.055 1.055 0 0 1-.865 1.216l-.021.004a1.055 1.055 0 0 1-.369-2.077l.04-.008a1.055 1.055 0 0 1 1.215.865zm10.49 9.462a1.055 1.055 0 1 1-2.11 0c0-3.691-2.353-6.99-5.724-8.025a1.055 1.055 0 0 1 .618-2.017c2.045.627 3.885 1.953 5.18 3.732a10.647 10.647 0 0 1 2.036 6.31z"/></g></g></svg>