<svg xmlns="http://www.w3.org/2000/svg" width="21" height="21" viewBox="0 0 21 21"><g><g><path fill="#eb5238" d="M17.926 3.07c-4.095-4.096-10.756-4.096-14.85 0A10.463 10.463 0 0 0 .233 8.292a10.528 10.528 0 0 0 .39 5.772.427.427 0 1 0 .803-.29A9.674 9.674 0 0 1 1.07 8.47a9.61 9.61 0 0 1 2.61-4.795c3.762-3.762 9.881-3.762 13.642 0a9.593 9.593 0 0 1 2.824 6.707 9.6 9.6 0 0 1-2.714 6.825c-.036.039-.072.077-.11.115-3.76 3.763-9.88 3.763-13.641 0a2.8 2.8 0 0 1-.06-.06 4.862 4.862 0 0 1 .004-.375c0-.028.003-.056.004-.085l.01-.17c.002-.034.006-.067.009-.1l.014-.153.014-.107.019-.144c.005-.037.012-.073.018-.11l.023-.139.022-.11.028-.136.027-.11c.01-.044.02-.089.032-.133l.03-.11.038-.13c.01-.036.022-.072.034-.108.014-.043.027-.086.042-.128l.038-.108.046-.126a6.67 6.67 0 0 1 .193-.455 6.629 6.629 0 0 1 .349-.652 6.585 6.585 0 0 1 .27-.412l.065-.091a6.308 6.308 0 0 1 .306-.386 5.891 5.891 0 0 1 .257-.285l.076-.08.098-.097.078-.076.104-.095.08-.072.109-.093.08-.068.115-.09.08-.064.124-.09c.027-.02.052-.039.079-.057.046-.033.092-.064.139-.095l.069-.046c.06-.04.122-.078.185-.116l.029-.018a7.37 7.37 0 0 1 .219-.126l.077-.04.147-.078.098-.047c.04-.02.08-.04.122-.058a4.178 4.178 0 0 0 2.88 1.159c1.073 0 2.107-.42 2.881-1.16a6.962 6.962 0 0 1 3.422 3.485.427.427 0 1 0 .782-.345 7.707 7.707 0 0 0-3.634-3.812c.47-.69.724-1.504.724-2.344a4.18 4.18 0 0 0-4.174-4.177.428.428 0 0 0 0 .855c1.83 0 3.32 1.49 3.32 3.322 0 .819-.305 1.607-.857 2.22-.63.7-1.529 1.1-2.463 1.1a3.324 3.324 0 0 1-2.464-1.1 3.313 3.313 0 0 1 .129-4.581.427.427 0 0 0-.602-.608 4.147 4.147 0 0 0-1.238 2.969c0 .839.253 1.653.722 2.342l-.012.006-.099.052c-.05.026-.101.052-.151.08l-.105.058-.14.08-.106.065-.132.083-.105.07a8.013 8.013 0 0 0-.126.085l-.104.074a7.746 7.746 0 0 0-.954.813l-.09.09-.101.109c-.029.03-.057.06-.085.092-.034.037-.067.076-.1.114l-.08.093-.098.121c-.024.03-.05.06-.073.091l-.1.134-.064.085a7.874 7.874 0 0 0-.123.177c-.01.016-.022.031-.033.047-.05.075-.099.151-.147.228-.016.027-.031.054-.048.08l-.091.155c-.019.032-.036.065-.054.098l-.077.142c-.019.035-.036.07-.054.106l-.069.138-.052.112a7.314 7.314 0 0 0-.062.137l-.049.115a8.396 8.396 0 0 0-.195.517 7.445 7.445 0 0 0-.253.95l-.024.124a7.19 7.19 0 0 0-.026.154l-.02.122c-.008.053-.014.107-.02.16l-.016.12c-.006.055-.01.111-.015.168l-.01.113c-.005.062-.008.126-.01.189l-.006.094a7.913 7.913 0 0 0 .003.595c0 .024.004.049.01.072v.006a.43.43 0 0 0 .022.067l.002.007c.01.021.02.041.033.06l.004.008a.43.43 0 0 0 .043.054l.003.004.056.06c.043.045.085.09.13.135A10.467 10.467 0 0 0 10.5 21c2.69 0 5.378-1.024 7.426-3.072.044-.044.087-.09.13-.135l.056-.06a10.45 10.45 0 0 0 2.887-7.36 10.443 10.443 0 0 0-3.073-7.302z"/></g></g></svg>