<svg xmlns="http://www.w3.org/2000/svg" width="34" height="37" viewBox="0 0 34 37"><defs><linearGradient id="ypv4a" x1="17.02" x2="17" y1="36.72" y2="-.08" gradientUnits="userSpaceOnUse"><stop offset="0" stop-color="#eb5238"/><stop offset="1" stop-color="#eb6f38"/></linearGradient></defs><g><g><path fill="#2e435e" d="M18.282 17.84c0 .49-.294.91-.716 1.108v1.49c0 .29-.24.524-.534.524a.529.529 0 0 1-.533-.523v-1.491a1.224 1.224 0 0 1-.716-1.109c0-.677.56-1.226 1.25-1.226s1.249.549 1.249 1.226zm13.122-8.396v3.192c0 4.185-1.243 8.318-3.594 11.954-2.374 3.672-5.813 6.74-9.947 8.873l-.068.035a1.708 1.708 0 0 1-1.567 0l-.067-.035c-4.134-2.133-7.574-5.201-9.947-8.873-2.351-3.636-3.594-7.77-3.594-11.954V9.444c0-.682.416-1.285 1.06-1.535C5.976 7.016 7.8 5.373 8.812 3.282a1.688 1.688 0 0 1 1.517-.936h13.366c.646 0 1.241.367 1.517.936 1.013 2.091 2.835 3.734 5.131 4.627.644.25 1.06.853 1.06 1.535zm-1.067 0a.6.6 0 0 0-.386-.561c-2.548-.99-4.573-2.82-5.702-5.151a.615.615 0 0 0-.554-.339H10.329a.615.615 0 0 0-.554.339c-1.13 2.331-3.155 4.16-5.702 5.15a.6.6 0 0 0-.386.562v3.192c0 3.986 1.185 7.925 3.427 11.393 2.274 3.517 5.574 6.459 9.543 8.507l.067.035c.18.093.395.093.575 0l.068-.035c3.969-2.048 7.269-4.99 9.543-8.507 2.242-3.468 3.427-7.407 3.427-11.393zm3.083 8.789c-1.693 7.356-6.839 13.729-14.117 17.485l-1.627.84a1.448 1.448 0 0 1-1.328 0l-1.627-.84C7.43 31.956 2.283 25.572.597 18.202A.524.524 0 0 1 1 17.577a.533.533 0 0 1 .637.396c1.618 7.069 6.568 13.199 13.58 16.818l1.627.84c.105.054.23.054.336 0l1.627-.84c7.001-3.613 11.949-9.733 13.573-16.79a.533.533 0 0 1 .638-.395.524.524 0 0 1 .402.627zm.604-10.928v5.624c0 .808-.042 1.626-.126 2.43a.53.53 0 0 1-.584.468.526.526 0 0 1-.477-.574c.08-.77.12-1.551.12-2.324V7.305a.354.354 0 0 0-.311-.35c-3.336-.346-5.964-2.678-6.39-5.67a.362.362 0 0 0-.359-.318H8.127a.362.362 0 0 0-.359.317c-.427 2.993-3.054 5.325-6.39 5.67a.354.354 0 0 0-.311.35v5.625c0 .781.041 1.571.122 2.348a.526.526 0 0 1-.53.577.53.53 0 0 1-.53-.47A23.668 23.668 0 0 1 0 12.93V7.305c0-.72.544-1.318 1.266-1.392 2.848-.296 5.087-2.258 5.446-4.774A1.432 1.432 0 0 1 8.127-.08h17.77c.708 0 1.316.524 1.415 1.22.359 2.515 2.598 4.477 5.446 4.773a1.401 1.401 0 0 1 1.266 1.392zm-9.207 7.352v7.498c0 .918-.761 1.666-1.696 1.666H10.944c-.935 0-1.696-.748-1.696-1.666v-7.498c0-.919.76-1.666 1.696-1.666h.877v-2.5c0-2.821 2.338-5.117 5.211-5.117 2.874 0 5.212 2.296 5.212 5.117v2.5h.877c.935 0 1.696.747 1.696 1.666zm-11.93-1.666h8.29v-2.5c0-2.244-1.86-4.07-4.145-4.07-2.285 0-4.144 1.826-4.144 4.07zm10.863 1.666a.625.625 0 0 0-.63-.618H10.945a.625.625 0 0 0-.63.618v7.498c0 .34.283.618.63.618h12.177c.347 0 .63-.277.63-.618z"/><path fill="url(#ypv4a)" d="M18.282 17.84c0 .49-.294.91-.716 1.108v1.49c0 .29-.24.524-.534.524a.529.529 0 0 1-.533-.523v-1.491a1.224 1.224 0 0 1-.716-1.109c0-.677.56-1.226 1.25-1.226s1.249.549 1.249 1.226zm13.122-8.396v3.192c0 4.185-1.243 8.318-3.594 11.954-2.374 3.672-5.813 6.74-9.947 8.873l-.068.035a1.708 1.708 0 0 1-1.567 0l-.067-.035c-4.134-2.133-7.574-5.201-9.947-8.873-2.351-3.636-3.594-7.77-3.594-11.954V9.444c0-.682.416-1.285 1.06-1.535C5.976 7.016 7.8 5.373 8.812 3.282a1.688 1.688 0 0 1 1.517-.936h13.366c.646 0 1.241.367 1.517.936 1.013 2.091 2.835 3.734 5.131 4.627.644.25 1.06.853 1.06 1.535zm-1.067 0a.6.6 0 0 0-.386-.561c-2.548-.99-4.573-2.82-5.702-5.151a.615.615 0 0 0-.554-.339H10.329a.615.615 0 0 0-.554.339c-1.13 2.331-3.155 4.16-5.702 5.15a.6.6 0 0 0-.386.562v3.192c0 3.986 1.185 7.925 3.427 11.393 2.274 3.517 5.574 6.459 9.543 8.507l.067.035c.18.093.395.093.575 0l.068-.035c3.969-2.048 7.269-4.99 9.543-8.507 2.242-3.468 3.427-7.407 3.427-11.393zm3.083 8.789c-1.693 7.356-6.839 13.729-14.117 17.485l-1.627.84a1.448 1.448 0 0 1-1.328 0l-1.627-.84C7.43 31.956 2.283 25.572.597 18.202A.524.524 0 0 1 1 17.577a.533.533 0 0 1 .637.396c1.618 7.069 6.568 13.199 13.58 16.818l1.627.84c.105.054.23.054.336 0l1.627-.84c7.001-3.613 11.949-9.733 13.573-16.79a.533.533 0 0 1 .638-.395.524.524 0 0 1 .402.627zm.604-10.928v5.624c0 .808-.042 1.626-.126 2.43a.53.53 0 0 1-.584.468.526.526 0 0 1-.477-.574c.08-.77.12-1.551.12-2.324V7.305a.354.354 0 0 0-.311-.35c-3.336-.346-5.964-2.678-6.39-5.67a.362.362 0 0 0-.359-.318H8.127a.362.362 0 0 0-.359.317c-.427 2.993-3.054 5.325-6.39 5.67a.354.354 0 0 0-.311.35v5.625c0 .781.041 1.571.122 2.348a.526.526 0 0 1-.53.577.53.53 0 0 1-.53-.47A23.668 23.668 0 0 1 0 12.93V7.305c0-.72.544-1.318 1.266-1.392 2.848-.296 5.087-2.258 5.446-4.774A1.432 1.432 0 0 1 8.127-.08h17.77c.708 0 1.316.524 1.415 1.22.359 2.515 2.598 4.477 5.446 4.773a1.401 1.401 0 0 1 1.266 1.392zm-9.207 7.352v7.498c0 .918-.761 1.666-1.696 1.666H10.944c-.935 0-1.696-.748-1.696-1.666v-7.498c0-.919.76-1.666 1.696-1.666h.877v-2.5c0-2.821 2.338-5.117 5.211-5.117 2.874 0 5.212 2.296 5.212 5.117v2.5h.877c.935 0 1.696.747 1.696 1.666zm-11.93-1.666h8.29v-2.5c0-2.244-1.86-4.07-4.145-4.07-2.285 0-4.144 1.826-4.144 4.07zm10.863 1.666a.625.625 0 0 0-.63-.618H10.945a.625.625 0 0 0-.63.618v7.498c0 .34.283.618.63.618h12.177c.347 0 .63-.277.63-.618z"/></g></g></svg>