<svg xmlns="http://www.w3.org/2000/svg" width="1645" height="65" viewBox="0 0 1645 65"><g><g><path fill="#fff" d="M28 12c4.7 0 8.954 1.907 12.032 4.99A11.447 11.447 0 0 1 46.5 15c4.261 0 7.981 2.317 9.968 5.76l.041.014C59.293 14.431 65.629 10 73 10c4.917 0 9.374 1.972 12.623 5.168A12.98 12.98 0 0 1 96 10c3.576 0 6.815 1.444 9.165 3.78C108.823 9.049 114.555 6 121 6c4.155 0 8.013 1.267 11.21 3.435A21.42 21.42 0 0 1 146.5 4c6.063 0 11.54 2.51 15.449 6.547A20.91 20.91 0 0 1 175 6c6.47 0 12.257 2.926 16.109 7.527A14.474 14.474 0 0 1 202.5 8a14.46 14.46 0 0 1 10.55 4.553C216.373 5.714 223.386 1 231.5 1c8.25 0 15.36 4.872 18.613 11.897A20.434 20.434 0 0 1 264.5 7c7.527 0 14.107 4.057 17.672 10.103A15.475 15.475 0 0 1 294.5 11c2.665 0 5.173.672 7.363 1.857C305.159 8.68 310.267 6 316 6c8.43 0 15.505 5.794 17.463 13.617A13.939 13.939 0 0 1 340 18a13.94 13.94 0 0 1 8.579 2.936C351.355 16.756 356.106 14 361.5 14c4.925 0 9.313 2.297 12.152 5.878A14.464 14.464 0 0 1 384.5 15c3.973 0 7.574 1.598 10.193 4.187A18.454 18.454 0 0 1 408.5 13a18.42 18.42 0 0 1 11.338 3.88A12.946 12.946 0 0 1 428 14c2.965 0 5.699.993 7.886 2.664A15.934 15.934 0 0 1 443 15c4.806 0 9.117 2.119 12.05 5.473A10.955 10.955 0 0 1 462 18c2.911 0 5.558 1.13 7.525 2.977A13.983 13.983 0 0 1 481 15c5.298 0 9.91 2.943 12.287 7.284A15.974 15.974 0 0 1 506 16c2.7 0 5.245.669 7.476 1.85A12.464 12.464 0 0 1 522.5 14c4.764 0 8.905 2.665 11.015 6.585C536.13 14.926 541.857 11 548.5 11a16.44 16.44 0 0 1 11.118 4.308A13.551 13.551 0 0 1 562.5 15c4.538 0 8.552 2.239 11 5.672a13.483 13.483 0 0 1 11-5.672 13.45 13.45 0 0 1 8.962 3.404A11.45 11.45 0 0 1 600.5 16c3.202 0 6.099 1.309 8.184 3.42A13.48 13.48 0 0 1 619.5 14c5.47 0 10.18 3.254 12.302 7.931A14.48 14.48 0 0 1 643.5 16a14.47 14.47 0 0 1 11.172 5.256A9.959 9.959 0 0 1 661 19c.441 0 .876.029 1.302.084A15.956 15.956 0 0 1 674 14c3.031 0 5.865.843 8.281 2.307A14.44 14.44 0 0 1 691.5 13c2.956 0 5.706.885 7.999 2.404a13.444 13.444 0 0 1 6-1.404c2.256 0 4.382.553 6.251 1.53A17.436 17.436 0 0 1 723.5 11c5.05 0 9.601 2.14 12.796 5.562A14.94 14.94 0 0 1 746 13c5.439 0 10.201 2.894 12.831 7.227A13.477 13.477 0 0 1 769.5 15c1.238 0 2.438.167 3.577.479A14.443 14.443 0 0 1 782.5 12c5.47 0 10.232 3.028 12.701 7.5A16.459 16.459 0 0 1 807.5 14c6.125 0 11.47 3.337 14.317 8.293A11.491 11.491 0 0 1 831.5 17c2.866 0 5.486 1.048 7.5 2.782A11.455 11.455 0 0 1 846.5 17c1.108 0 2.18.157 3.193.449C852.259 12.433 857.479 9 863.5 9c6.063 0 11.313 3.481 13.86 8.554.091-.055.183-.108.276-.16C879.373 11.946 884.476 8 890.5 8c5.39 0 10.042 3.159 12.206 7.726A12.98 12.98 0 0 1 907 15c3.077 0 5.904 1.069 8.13 2.855A13.472 13.472 0 0 1 925.5 13a13.44 13.44 0 0 1 8.183 2.761A12.478 12.478 0 0 1 943.5 11c2.859 0 5.494.96 7.6 2.575A12.971 12.971 0 0 1 961 9c3.315 0 6.341 1.241 8.638 3.284A12.94 12.94 0 0 1 977 10c5.423 0 10.07 3.32 12.02 8.04A11.97 11.97 0 0 1 998 14c3.11 0 5.944 1.183 8.076 3.125A13.957 13.957 0 0 1 1016 13c5.374 0 10.041 3.028 12.388 7.472 2.498-5.583 8.1-9.472 14.612-9.472 1.777 0 3.487.29 5.084.825A13.936 13.936 0 0 1 1055 10c3.877 0 7.386 1.576 9.922 4.123C1067.899 9.819 1072.87 7 1078.5 7c4.36 0 8.326 1.691 11.276 4.454A14.93 14.93 0 0 1 1098 9c2.96 0 5.72.858 8.045 2.338A15.945 15.945 0 0 1 1117 7c6.032 0 11.284 3.338 14.01 8.267A13.944 13.944 0 0 1 1140 12c4.103 0 7.793 1.765 10.354 4.577 2.589-3.96 7.062-6.577 12.146-6.577 4.276 0 8.12 1.85 10.774 4.795A13.441 13.441 0 0 1 1181.5 12c2.585 0 5.001.727 7.054 1.987C1190.568 5.951 1197.84 0 1206.5 0c7.777 0 14.434 4.8 17.17 11.598a12.492 12.492 0 0 1 3.83-.598c3.72 0 7.06 1.625 9.35 4.203A13.477 13.477 0 0 1 1247.5 10c3.364 0 6.44 1.23 8.803 3.265C1259.482 8.864 1264.656 6 1270.5 6c5.705 0 10.772 2.73 13.967 6.954A18.414 18.414 0 0 1 1294.5 10a18.45 18.45 0 0 1 13.604 5.963A11.954 11.954 0 0 1 1316 13a11.96 11.96 0 0 1 8.298 3.331C1326.404 11.991 1330.852 9 1336 9c4.326 0 8.16 2.113 10.522 5.364A12.94 12.94 0 0 1 1354 12c2.136 0 4.151.515 5.93 1.428C1363.402 8.91 1368.86 6 1375 6c4.805 0 9.194 1.784 12.54 4.725A17.439 17.439 0 0 1 1399.5 6a17.42 17.42 0 0 1 10.213 3.287A16.936 16.936 0 0 1 1421 5c3.963 0 7.61 1.356 10.5 3.63A16.927 16.927 0 0 1 1442 5c4.395 0 8.4 1.667 11.417 4.404A18.444 18.444 0 0 1 1460.5 8c5.22 0 9.934 2.162 13.298 5.638A14.437 14.437 0 0 1 1480.5 12c3.624 0 6.937 1.33 9.478 3.527A15.933 15.933 0 0 1 1500 12c3.819 0 7.325 1.338 10.076 3.57 1.073-.37 2.225-.57 3.424-.57 1.848 0 3.584.477 5.093 1.315A12.94 12.94 0 0 1 1526 14a12.95 12.95 0 0 1 8.5 3.164A12.95 12.95 0 0 1 1543 14c2.045 0 3.98.472 5.702 1.314A12.54 12.54 0 0 1 1551.5 15a12.5 12.5 0 0 1 11.164 6.87c3.794-7.065 11.254-11.87 19.836-11.87.822 0 1.633.044 2.432.13A22.414 22.414 0 0 1 1594.5 8c3.53 0 6.87.813 9.842 2.261C1608.562 5.212 1614.905 2 1622 2c12.702 0 23 10.297 23 23 0 12.702-10.298 23-23 23a22.9 22.9 0 0 1-10.638-2.603C1607.24 50.06 1601.213 53 1594.5 53c-.822 0-1.633-.044-2.432-.13A22.414 22.414 0 0 1 1582.5 55c-8.064 0-15.137-4.242-19.11-10.617A13.949 13.949 0 0 1 1554 48c-5.628 0-10.48-3.321-12.705-8.11a12.914 12.914 0 0 1-2.94-.745A10.492 10.492 0 0 1 1529.5 44c-3.894 0-7.292-2.12-9.105-5.267a13.043 13.043 0 0 1-4.118-3.104 10.49 10.49 0 0 1-2.414.365C1511.097 40.78 1505.925 44 1500 44a15.958 15.958 0 0 1-11.81-5.205A14.432 14.432 0 0 1 1480.5 41c-2.418 0-4.698-.592-6.702-1.639A18.446 18.446 0 0 1 1460.5 45a18.46 18.46 0 0 1-14.136-6.565A17.025 17.025 0 0 1 1442 39c-3.963 0-7.61-1.356-10.5-3.63A16.927 16.927 0 0 1 1421 39a16.92 16.92 0 0 1-9.415-2.843A17.44 17.44 0 0 1 1399.5 41a17.421 17.421 0 0 1-10.314-3.36A18.953 18.953 0 0 1 1375 44c-6.139 0-11.597-2.911-15.07-7.428A12.945 12.945 0 0 1 1354 38c-4.327 0-8.16-2.114-10.523-5.365A12.94 12.94 0 0 1 1336 35c-3.76 0-7.147-1.596-9.521-4.148A11.997 11.997 0 0 1 1316 37c-1.637 0-3.197-.328-4.619-.921-2.895 6.438-9.364 10.92-16.881 10.92-6.427 0-12.09-3.277-15.405-8.252A17.42 17.42 0 0 1 1270.5 41c-5.844 0-11.018-2.864-14.197-7.265A13.447 13.447 0 0 1 1247.5 37c-4.328 0-8.18-2.036-10.65-5.203A12.47 12.47 0 0 1 1227.5 36a12.46 12.46 0 0 1-8.784-3.607A18.43 18.43 0 0 1 1206.5 37a18.44 18.44 0 0 1-12.99-5.328c-2.241 4.352-6.778 7.328-12.01 7.328a13.454 13.454 0 0 1-9.304-3.718A14.446 14.446 0 0 1 1162.5 39a14.467 14.467 0 0 1-10.985-5.035A13.984 13.984 0 0 1 1140 40c-4.729 0-8.91-2.344-11.444-5.934A15.954 15.954 0 0 1 1117 39a15.93 15.93 0 0 1-9.672-3.253A14.936 14.936 0 0 1 1098 39a14.933 14.933 0 0 1-8.856-2.892A16.434 16.434 0 0 1 1078.5 40c-5.378 0-10.154-2.573-13.167-6.554a13.963 13.963 0 0 1-10.71 4.549A15.955 15.955 0 0 1 1043 43c-6.511 0-12.114-3.89-14.612-9.472C1026.042 37.972 1021.374 41 1016 41a13.974 13.974 0 0 1-10.956-5.284A11.946 11.946 0 0 1 998 38c-4.793 0-8.93-2.81-10.853-6.873A12.976 12.976 0 0 1 977 36a12.951 12.951 0 0 1-8.638-3.284A12.94 12.94 0 0 1 961 35a12.947 12.947 0 0 1-8.323-3.013A12.466 12.466 0 0 1 943.5 36c-2.498 0-4.825-.733-6.777-1.995A13.487 13.487 0 0 1 925.5 40a13.448 13.448 0 0 1-8.842-3.298A12.967 12.967 0 0 1 907 41a12.998 12.998 0 0 1-11.51-6.952 13.462 13.462 0 0 1-4.94.952c-1.97 1.86-4.627 3-7.55 3-3.07 0-5.846-1.258-7.841-3.286A15.463 15.463 0 0 1 863.499 40a15.43 15.43 0 0 1-9.214-3.036A11.459 11.459 0 0 1 846.5 40a11.455 11.455 0 0 1-7.5-2.782A11.455 11.455 0 0 1 831.5 40a11.47 11.47 0 0 1-8.52-3.776C820.653 42.515 814.6 47 807.5 47c-6.76 0-12.572-4.066-15.121-9.886A14.449 14.449 0 0 1 782.5 41c-2.016 0-3.936-.411-5.68-1.155A13.437 13.437 0 0 1 769.5 42a13.483 13.483 0 0 1-11.012-5.688C755.8 40.344 751.21 43 746 43a14.935 14.935 0 0 1-9.187-3.142A17.461 17.461 0 0 1 723.5 46c-5.22 0-9.907-2.286-13.114-5.912A13.466 13.466 0 0 1 705.5 41c-2.156 0-4.194-.505-6.001-1.404A14.432 14.432 0 0 1 691.5 42c-2.031 0-3.965-.418-5.72-1.172A15.958 15.958 0 0 1 674 46c-5.5 0-10.353-2.776-13.232-7.003a9.949 9.949 0 0 1-4.685-1.287c-2.501 4.356-7.2 7.29-12.583 7.29-6.09 0-11.303-3.754-13.451-9.075A13.475 13.475 0 0 1 619.499 41a13.48 13.48 0 0 1-10.815-5.42A11.465 11.465 0 0 1 600.5 39c-2.137 0-4.137-.583-5.851-1.598A13.468 13.468 0 0 1 584.499 42a13.483 13.483 0 0 1-11-5.672A13.483 13.483 0 0 1 562.5 42c-1.663 0-3.256-.3-4.727-.85A16.423 16.423 0 0 1 548.5 44c-7.093 0-13.14-4.476-15.473-10.757A12.49 12.49 0 0 1 522.5 39c-.691 0-1.37-.056-2.03-.164C517.907 44.253 512.39 48 506 48c-6.549 0-12.178-3.934-14.654-9.568A13.964 13.964 0 0 1 481 43a13.984 13.984 0 0 1-11.475-5.977A10.962 10.962 0 0 1 462 40c-1.809 0-3.516-.437-5.021-1.21-2.735 4.898-7.97 8.21-13.98 8.21-5.546 0-10.433-2.823-13.304-7.11a13.122 13.122 0 0 1-4.595-.215C422.082 45.792 415.782 50 408.5 50c-6.593 0-12.38-3.448-15.656-8.64A14.434 14.434 0 0 1 384.5 44a14.464 14.464 0 0 1-10.848-4.878A15.472 15.472 0 0 1 361.5 45a15.446 15.446 0 0 1-10.61-4.2A13.973 13.973 0 0 1 340 46c-5.592 0-10.419-3.279-12.662-8.02A17.925 17.925 0 0 1 316 42c-4.236 0-8.13-1.464-11.205-3.912A15.442 15.442 0 0 1 294.5 42a15.463 15.463 0 0 1-11.674-5.303C279.456 43.4 272.515 48 264.5 48c-8.25 0-15.36-4.873-18.613-11.897A20.434 20.434 0 0 1 231.5 42c-7.61 0-14.252-4.147-17.789-10.304A14.471 14.471 0 0 1 202.5 37c-2.928 0-5.653-.868-7.933-2.36C191.511 42.46 183.903 48 175 48a20.932 20.932 0 0 1-14.705-6.008A21.413 21.413 0 0 1 146.5 47a21.412 21.412 0 0 1-13.65-4.888A19.91 19.91 0 0 1 121 46c-8.151 0-15.163-4.876-18.279-11.87A12.94 12.94 0 0 1 96 36c-2.24 0-4.346-.566-6.185-1.563C87.225 41.2 80.673 46 73 46c-2.519 0-4.916-.517-7.093-1.451-2.823 5.042-8.217 8.45-14.407 8.45-1.4 0-2.759-.173-4.057-.502C43 59.983 34.836 65 25.5 65 11.417 65 0 53.583 0 39.5 0 27.91 7.73 18.128 18.316 15.026A16.922 16.922 0 0 1 28 12z"/></g></g></svg>