<svg xmlns="http://www.w3.org/2000/svg" width="118" height="77" viewBox="0 0 118 77"><defs><clipPath id="76lka"><path d="M57.909 39.72c5.281-1.027 9.943.095 10.412 2.506.469 2.411-3.432 5.199-8.714 6.226-5.281 1.027-9.943-.095-10.412-2.506-.469-2.41 3.432-5.198 8.714-6.225z"/></clipPath></defs><g><g><path fill="#fff" d="M27 23c.96 0 1.91.05 2.844.148C35.478 9.558 48.873 0 64.5 0 78.636 0 90.944 7.82 97.335 19.372c1.87-.88 3.96-1.372 6.165-1.372 8.008 0 14.5 6.492 14.5 14.5S111.508 47 103.5 47c-.906 0-1.792-.083-2.652-.242C96.726 62.991 82.016 75 64.5 75a37.326 37.326 0 0 1-19.112-5.23A26.905 26.905 0 0 1 27 77C12.088 77 0 64.912 0 50s12.088-27 27-27z"/></g><g><path fill="#0d3e60" d="M44.806 30.42c1.821-.354 3.59.862 3.95 2.716.362 1.855-.822 3.646-2.644 4-1.82.354-3.59-.862-3.95-2.717-.361-1.854.823-3.645 2.644-4z"/></g><g><path fill="#0d3e60" d="M66.57 26.187c1.821-.355 3.59.862 3.95 2.716.362 1.855-.822 3.645-2.644 4-1.82.354-3.59-.862-3.95-2.717-.361-1.855.823-3.645 2.644-4z"/></g><g><path fill="#0d3e60" d="M57.909 39.72c5.281-1.027 9.943.095 10.412 2.506.469 2.411-3.432 5.199-8.714 6.226-5.281 1.027-9.943-.095-10.412-2.506-.469-2.41 3.432-5.198 8.714-6.225z"/></g><g clip-path="url(#76lka)"><path fill="#eb5238" d="M60.142 44.165c2.732-.53 5.356 1.143 5.861 3.74.505 2.596-1.3 5.132-4.032 5.663-2.732.532-5.355-1.143-5.86-3.739-.506-2.597 1.3-5.132 4.031-5.664z"/></g><g><path fill="#b8a4de" d="M39.903 43.92c1.457-.283 2.872.69 3.16 2.173.29 1.484-.658 2.917-2.115 3.2-1.457.283-2.872-.69-3.16-2.173-.29-1.484.658-2.917 2.115-3.2z"/></g><g><path fill="#b8a4de" d="M76.836 36.736c1.457-.283 2.872.69 3.16 2.174.289 1.483-.658 2.916-2.115 3.2-1.457.283-2.872-.69-3.16-2.174-.29-1.484.658-2.916 2.115-3.2z"/></g></g></svg>