<svg xmlns="http://www.w3.org/2000/svg" width="86" height="49" viewBox="0 0 86 49"><g><g><path fill="#fff" d="M13.5 14c1.58 0 3.098.272 4.508.77C21.772 6.08 30.426 0 40.5 0 51.01 0 59.973 6.617 63.452 15.91A13.94 13.94 0 0 1 72 13c7.732 0 14 6.268 14 14s-6.268 14-14 14a13.961 13.961 0 0 1-10.191-4.401c-4.214 7.406-12.178 12.4-21.309 12.4-8.138 0-15.35-3.967-19.805-10.074A13.437 13.437 0 0 1 13.5 41C6.044 41 0 34.956 0 27.5S6.044 14 13.5 14z"/></g><g><path fill="#0d3e60" d="M42.812 27.094c4.73 0 8.563 1.287 8.563 2.875s-3.834 2.875-8.563 2.875c-4.729 0-8.562-1.287-8.562-2.875s3.833-2.875 8.562-2.875z"/></g><g><path fill="#0d3e60" d="M36.667 18.723l-3.602 3.343h1.696l3.602-3.343-3.602-3.358h-1.696z"/></g><g><path fill="#0d3e60" d="M48.27 18.405l3.635-3.4h-1.713l-3.636 3.4 3.636 3.416h1.713z"/></g><g><path fill="#eb5238" d="M42.766 23.906c2.666 0 4.828 2.707 4.828 6.047S45.432 36 42.766 36c-2.667 0-4.829-2.707-4.829-6.047s2.162-6.047 4.829-6.047z"/></g><g><path fill="#e8ddff" d="M25.922 24.219c1.614 0 2.922 1.294 2.922 2.89 0 1.597-1.308 2.891-2.922 2.891S23 28.706 23 27.11c0-1.597 1.308-2.891 2.922-2.891z"/></g><g><path fill="#e8dbfe" d="M58.078 24.219c1.614 0 2.922 1.294 2.922 2.89C61 28.706 59.692 30 58.078 30s-2.922-1.294-2.922-2.89c0-1.597 1.308-2.891 2.922-2.891z"/></g></g></svg>